# xmcd
#
# Track frame offsets:
# 150
# 13790
# 25617
# 36620
# 49075
# 61705
# 72602
# 84067
# 92765
# 105775
# 117902
# 130910
# 139800
# 152412
# 165152
# 176487
# 188772
# 200385
# 213757
# 226612
# 239610
# 252002
# 263525
# 276812
# 289927
#
# Disc length: 4024 seconds
#
#
# Revision: 4
# Processed by: cddbd v1.5.2PL0 Copyright (c) Steve Scherf et al.
# Submitted via: FreeRIP 2.951 
#
DISCID=440fb619
DTITLE=Compilation - Smile And Jive - Kings Of Western Swing Disc 02
DYEAR=1997
DGENRE=Swing
TTITLE0=Adolph Hofner and His Texans - Swing With The Music
TTITLE1=Ted Daffan's Texans - Down Hi Lo Way
TTITLE2=Bill Nettles and His Dixie Blues Boy - She Selling What She Used To Give Away
TTITLE3=Prairie Ramblers - Double Crossing Mama
TTITLE4=Al Dexter and His Troopers (v- Aubrey Gass) - Sunshine
TTITLE5=Adolph Hofner and His Texans - Am I Happy
TTITLE6=Rambling Rogue  - Tender Hearted Sue
TTITLE7=Billy Hughes and His Pals of The Pecos - I'm Telling You
TTITLE8=Charlie Linville and The Fiddlin' Linvilles - Texahoma Boogie
TTITLE9=Hank Penny - Flamin' Mamie
TTITLE10=Ted Daffan's Texans - Look Who's Talking
TTITLE11=Johnny Tyler's Riders of The Rio Grande - I Can't Trust You Now
TTITLE12=Bill Nettles and His Dixie Blues Boy - Sugar Baby Blues
TTITLE13=Al Dexter and His Troopers - I'm Losing My Mind Over You
TTITLE14=Bill Boyd and His Cowboy Ramblers - New Steel Guitar Rag
TTITLE15=Harmie Smith and The Southern Swingsters - Weary Trouble Of My Mind
TTITLE16=Hank Penny - Talkin' About You
TTITLE17=Tex Russell and His Hollywood Cowboys - What It Means To Be Blue
TTITLE18=Merl Lindsay and His Oklahoma Night Riders - Cotton Sack Drag
TTITLE19=Bill Boyd and His Cowboy Ramblers - Road Side Rag
TTITLE20=Tex Atchison - You Don't Do Right By Me Anymore
TTITLE21=Hank Penny - These Wild Wild Women
TTITLE22=T Texas Tyler - Gals Don't Mean A Thing
TTITLE23=Merl Lindsay and His Oklahoma Night Riders - Gotta Little Red Wagon
TTITLE24=T Texas Tyler - It's Been So Long Darling
EXTD=
EXTT0=
EXTT1=
EXTT2=
EXTT3=
EXTT4=
EXTT5=
EXTT6=
EXTT7=
EXTT8=
EXTT9=
EXTT10=
EXTT11=
EXTT12=
EXTT13=
EXTT14=
EXTT15=
EXTT16=
EXTT17=
EXTT18=
EXTT19=
EXTT20=
EXTT21=
EXTT22=
EXTT23=
EXTT24=
PLAYORDER=
